<?xml version="1.0" encoding="UTF-8"?>
<!DOCTYPE svg PUBLIC "-//W3C//DTD SVG 1.1//EN" "http://www.w3.org/Graphics/SVG/1.1/DTD/svg11.dtd">
<svg xmlns="http://www.w3.org/2000/svg" version="1.1" width="512px" height="512px" style="shape-rendering:geometricPrecision; text-rendering:geometricPrecision; image-rendering:optimizeQuality; fill-rule:evenodd; clip-rule:evenodd" xmlns:xlink="http://www.w3.org/1999/xlink">
<g><path style="opacity:0.994" fill="#9e9e9e" d="M 40.5,71.5 C 157.167,71.3333 273.834,71.5 390.5,72C 398.667,74.8333 404.167,80.3333 407,88.5C 407.5,146.832 407.667,205.166 407.5,263.5C 451.637,269.803 478.137,294.803 487,338.5C 490.889,372.522 479.722,400.356 453.5,422C 430.206,438.718 404.539,443.718 376.5,437C 341.446,426.447 320.113,403.28 312.5,367.5C 221.833,367.667 131.166,367.5 40.5,367C 32.3333,364.167 26.8333,358.667 24,350.5C 23.3333,263.167 23.3333,175.833 24,88.5C 27.0191,80.3156 32.5191,74.649 40.5,71.5 Z"/></g>
<g><path style="opacity:1" fill="#f9f9f9" d="M 44.5,87.5 C 159.223,87.006 273.89,87.506 388.5,89C 389.701,89.9025 390.535,91.0692 391,92.5C 391.5,149.832 391.667,207.166 391.5,264.5C 378.09,265.026 365.757,268.86 354.5,276C 353.5,276.667 352.5,276.667 351.5,276C 330.4,252.477 309.067,229.144 287.5,206C 280.957,202.505 274.623,202.839 268.5,207C 253.653,222.014 238.653,236.847 223.5,251.5C 209.123,233.952 195.29,215.952 182,197.5C 172.681,185.875 163.014,185.541 153,196.5C 115.333,243.833 77.6667,291.167 40,338.5C 39.3333,256.5 39.3333,174.5 40,92.5C 41.025,90.313 42.525,88.6464 44.5,87.5 Z"/></g>
<g><path style="opacity:1" fill="#9f9f9f" d="M 311.5,103.5 C 335.857,101.713 351.691,112.38 359,135.5C 361.173,160.314 350.34,176.147 326.5,183C 301.144,184.742 285.644,173.242 280,148.5C 279.163,125.492 289.663,110.492 311.5,103.5 Z"/></g>
<g><path style="opacity:1" fill="#dfdfdf" d="M 313.5,119.5 C 327.829,118.244 337.663,124.244 343,137.5C 344.817,152.369 338.651,162.203 324.5,167C 309.485,168.575 299.985,162.075 296,147.5C 294.974,133.886 300.807,124.553 313.5,119.5 Z"/></g>
<g><path style="opacity:1" fill="#dfdfdf" d="M 166.5,205.5 C 204.489,253.177 241.822,301.51 278.5,350.5C 202.5,351.833 126.5,351.833 50.5,350.5C 89.1902,302.148 127.857,253.814 166.5,205.5 Z"/></g>
<g><path style="opacity:1" fill="#dfdfdf" d="M 278.5,220.5 C 299.441,241.781 319.774,263.781 339.5,286.5C 321.243,304.255 311.91,325.922 311.5,351.5C 307.486,351.666 303.486,351.499 299.5,351C 277.258,322.514 255.258,293.847 233.5,265C 248.395,249.938 263.395,235.104 278.5,220.5 Z"/></g>
<g><path style="opacity:1" fill="#f8f8f8" d="M 388.5,279.5 C 424.3,276.974 450.133,291.641 466,323.5C 478.385,361.347 468.218,391.514 435.5,414C 400.235,431.146 369.402,425.313 343,396.5C 322.434,366.448 322.434,336.448 343,306.5C 355.112,292.2 370.278,283.2 388.5,279.5 Z"/></g>
<g><path style="opacity:1" fill="#9f9f9f" d="M 390.5,295.5 C 424.898,293.759 446.398,309.426 455,342.5C 457.142,374.747 442.975,395.913 412.5,406C 383.043,410.689 361.543,399.855 348,373.5C 338.105,344.925 345.271,321.758 369.5,304C 376.187,300.057 383.187,297.224 390.5,295.5 Z"/></g>
<g><path style="opacity:1" fill="#f9f9f9" d="M 391.5,311.5 C 397.565,311.261 403.565,311.761 409.5,313C 413.759,313.799 417.425,315.632 420.5,318.5C 402.833,336.833 384.833,354.833 366.5,372.5C 355.057,352.959 357.724,335.459 374.5,320C 379.731,316.102 385.397,313.269 391.5,311.5 Z"/></g>
<g><path style="opacity:1" fill="#f9f9f9" d="M 432.5,329.5 C 442.147,345.35 441.647,361.017 431,376.5C 415.238,392.488 397.404,395.322 377.5,385C 396.035,366.632 414.368,348.132 432.5,329.5 Z"/></g>
</svg>
