<svg xmlns="http://www.w3.org/2000/svg" width="20" height="20" fill="none" viewBox="0 0 20 20"><path fill="#F8F8F8" d="M5.79991 0H14.1998C17.3997 0 19.9997 2.59996 19.9997 5.79991V14.1998C19.9997 15.738 19.3886 17.2132 18.3009 18.3009C17.2132 19.3886 15.738 19.9997 14.1998 19.9997H5.79991C2.59996 19.9997 0 17.3997 0 14.1998V5.79991C0 4.26167 0.61106 2.78645 1.69875 1.69875C2.78645 0.61106 4.26167 0 5.79991 0ZM5.59991 1.99997C4.64514 1.99997 3.72949 2.37925 3.05437 3.05437C2.37925 3.72949 1.99997 4.64514 1.99997 5.59991V14.3998C1.99997 16.3897 3.60994 17.9997 5.59991 17.9997H14.3998C15.3545 17.9997 16.2702 17.6204 16.9453 16.9453C17.6204 16.2702 17.9997 15.3545 17.9997 14.3998V5.59991C17.9997 3.60994 16.3897 1.99997 14.3998 1.99997H5.59991ZM15.2498 3.49994C15.5813 3.49994 15.8992 3.63164 16.1336 3.86605C16.368 4.10047 16.4997 4.41841 16.4997 4.74992C16.4997 5.08144 16.368 5.39937 16.1336 5.63379C15.8992 5.86821 15.5813 5.9999 15.2498 5.9999C14.9182 5.9999 14.6003 5.86821 14.3659 5.63379C14.1315 5.39937 13.9998 5.08144 13.9998 4.74992C13.9998 4.41841 14.1315 4.10047 14.3659 3.86605C14.6003 3.63164 14.9182 3.49994 15.2498 3.49994ZM9.99984 4.99992C11.3259 4.99992 12.5976 5.52669 13.5353 6.46436C14.473 7.40203 14.9998 8.67378 14.9998 9.99984C14.9998 11.3259 14.473 12.5976 13.5353 13.5353C12.5976 14.473 11.3259 14.9998 9.99984 14.9998C8.67378 14.9998 7.40203 14.473 6.46436 13.5353C5.52669 12.5976 4.99992 11.3259 4.99992 9.99984C4.99992 8.67378 5.52669 7.40203 6.46436 6.46436C7.40203 5.52669 8.67378 4.99992 9.99984 4.99992ZM9.99984 6.99989C9.2042 6.99989 8.44115 7.31595 7.87855 7.87855C7.31595 8.44115 6.99989 9.2042 6.99989 9.99984C6.99989 10.7955 7.31595 11.5585 7.87855 12.1211C8.44115 12.6837 9.2042 12.9998 9.99984 12.9998C10.7955 12.9998 11.5585 12.6837 12.1211 12.1211C12.6837 11.5585 12.9998 10.7955 12.9998 9.99984C12.9998 9.2042 12.6837 8.44115 12.1211 7.87855C11.5585 7.31595 10.7955 6.99989 9.99984 6.99989Z"/></svg>