<svg xmlns="http://www.w3.org/2000/svg" id="Calque_2" data-name="Calque 2" viewBox="0 0 410.94 370.94"><defs><style>.cls-1{fill:#f1f9a2;opacity:.68}.cls-2{fill:#fff}.cls-3{stroke-width:8px}.cls-3,.cls-4,.cls-5,.cls-6,.cls-7,.cls-8{fill:#f8c425}.cls-3,.cls-4,.cls-6,.cls-7,.cls-8,.cls-9{stroke-miterlimit:10}.cls-3,.cls-6,.cls-7{stroke:#06135d}.cls-4,.cls-9{stroke-width:6px}.cls-4,.cls-8,.cls-9{stroke:#fff}.cls-10{fill:#f9fdfe}.cls-11{fill:#f97a26;opacity:.29}.cls-12{fill:#fcc72e}.cls-13{fill:#c15b04}.cls-14,.cls-9{fill:#06135d}.cls-6{stroke-width:18px}.cls-7{stroke-width:14px}.cls-8{stroke-width:4px}</style></defs><g id="Calque_1-2" data-name="Calque 1"><g><path d="M114.62,361.94c1.64-22.04,14.72-35.52,36.25-36.99,5.64-.38,7.8-2.45,8.93-7.73,2.12-9.96,4.95-19.78,7.47-29.59,19.85,0,38.85-.18,57.82,.24,2.22,.05,5.51,3.06,6.33,5.39,2.67,7.65,4.68,15.56,6.45,23.48,1.28,5.75,3.68,8.41,10.2,8.72,19.67,.93,33.95,15.98,35.05,36.48H114.62Z" class="cls-6"/><path d="M120.47,213.9c-1.22-11.38-2.44-22.76-3.68-34.3-5.72,1.7-10.35,3.66-15.16,4.36-5.42,.78-10.06-2.24-10.08-7.61-.02-3.33,3.32-9.22,5.79-9.57,9.49-1.36,10.45-7.04,9.73-14.53-.21-2.19-.23-4.39-.34-6.48-16.32-2.35-32.35,8.78-39.59,26.36-3.11,7.55-3.06,13.29,3.61,19.2,7.46,6.6,13.84,14.41,21.75,22.82-8.49,0-15.81,.19-23.11-.14-1.67-.08-3.5-1.69-4.84-3-3.4-3.33-6.19-7.41-9.92-10.27-9.54-7.31-9.65-16.61-7.12-27.03,7.69-31.7,36.73-51.61,69-47.08,5.51,.77,8.54,3.87,8.54,9.59,0,8,0,16,0,24.53h147.94c0-7.28-.04-14.48,0-21.67,.06-9.66,2.81-12.35,12.64-12.5,35.54-.54,60.15,18.78,65.97,51.71,1.39,7.84,.96,15.03-6.12,20.29-.8,.59-1.62,1.3-2.1,2.14-8.37,14.61-21.74,15.19-37.04,12.81,8.14-8.68,16.03-16.93,23.71-25.38,1.56-1.71,3.41-4.25,3.25-6.26-1.68-21.22-24.47-40.59-41.93-36.06,0,3.93-.84,8.35,.27,12.22,.84,2.91,3.72,6.31,6.5,7.37,6.91,2.62,10.06,6.04,8.63,11.73-1.36,5.38-6.49,7.88-13.27,6.34-1.94-.44-3.84-1.1-5.7-1.8-1.8-.67-3.53-1.52-5.99-2.59-1.74,12.25-3.38,23.82-5.01,35.38-11.02-.07-22.04-.17-33.07-.21-41.09-.13-82.18-.25-123.26-.37Z" class="cls-7"/><rect width="58.55" height="69.45" x="64.24" y="144.7" class="cls-14"/><rect width="58.55" height="69.45" x="281.26" y="144.7" class="cls-14"/><path d="M114.62,361.94c1.64-22.04,14.72-35.52,36.25-36.99,5.64-.38,7.8-2.45,8.93-7.73,2.12-9.96,4.95-19.78,7.47-29.59,19.85,0,38.85-.18,57.82,.24,2.22,.05,5.51,3.06,6.33,5.39,2.67,7.65,4.68,15.56,6.45,23.48,1.28,5.75,3.68,8.41,10.2,8.72,19.67,.93,33.95,15.98,35.05,36.48H114.62Z" class="cls-4"/><path d="M120.47,213.9c-1.22-11.38-2.44-22.76-3.68-34.3-5.72,1.7-10.35,3.66-15.16,4.36-5.42,.78-10.06-2.24-10.08-7.61-.02-3.33,3.32-9.22,5.79-9.57,9.49-1.36,10.45-7.04,9.73-14.53-.21-2.19-.23-4.39-.34-6.48-16.32-2.35-32.35,8.78-39.59,26.36-3.11,7.55-3.06,13.29,3.61,19.2,7.46,6.6,13.84,14.41,21.75,22.82-8.49,0-15.81,.19-23.11-.14-1.67-.08-3.5-1.69-4.84-3-3.4-3.33-6.19-7.41-9.92-10.27-9.54-7.31-9.65-16.61-7.12-27.03,7.69-31.7,36.73-51.61,69-47.08,5.51,.77,8.54,3.87,8.54,9.59,0,8,0,16,0,24.53h147.94c0-7.28-.04-14.48,0-21.67,.06-9.66,2.81-12.35,12.64-12.5,35.54-.54,60.15,18.78,65.97,51.71,1.39,7.84,.96,15.03-6.12,20.29-.8,.59-1.62,1.3-2.1,2.14-8.37,14.61-21.74,15.19-37.04,12.81,8.14-8.68,16.03-16.93,23.71-25.38,1.56-1.71,3.41-4.25,3.25-6.26-1.68-21.22-24.47-40.59-41.93-36.06,0,3.93-.84,8.35,.27,12.22,.84,2.91,3.72,6.31,6.5,7.37,6.91,2.62,10.06,6.04,8.63,11.73-1.36,5.38-6.49,7.88-13.27,6.34-1.94-.44-3.84-1.1-5.7-1.8-1.8-.67-3.53-1.52-5.99-2.59-1.74,12.25-3.38,23.82-5.01,35.38-11.02-.07-22.04-.17-33.07-.21-41.09-.13-82.18-.25-123.26-.37Z" class="cls-8"/><g><polygon points="233.03 106.42 233.03 156.27 165.26 156.27 165.26 86.97 125.88 49.38 125.88 192.69 165.26 192.69 165.26 192.69 179.46 192.69 179.46 334.54 218.84 316.95 218.84 192.69 233.03 192.69 233.03 192.69 272.41 192.69 272.41 86.97 233.03 106.42" class="cls-5"/><path d="M175.46,340.71V196.69h-53.58s0-156.65,0-156.65l47.38,45.23v67.01h59.77v-48.33l47.38-23.4v116.16h-53.58s0,122.86,0,122.86l-47.38,21.16Zm-10.2-152.02h18.2v139.69l31.38-14.01v-125.67h53.58s0-95.28,0-95.28l-31.38,15.5v51.36h-75.77V88.68l-31.38-29.96V188.69h35.38Z" class="cls-14"/></g><polygon points="272.42 86.97 272.42 192.69 218.84 192.69 218.84 316.96 179.46 334.54 179.46 192.69 125.89 192.69 125.89 49.38 165.27 86.97 165.27 156.27 233.04 156.27 233.04 106.42 272.42 86.97" class="cls-3"/><path d="M5.08,211.76l-1.95,47.41H15.63v74.81s166.74-104.53,379.55-.05v-74.94h10.78l1.86-47.51-402.74,.28Z" class="cls-9"/><g><path d="M21.54,223h48.36v14.85h-16.57v59.87l-15.23,6.13v-65.99H21.54v-14.85Z" class="cls-2"/><path d="M74.89,274.42v-41.1c0-1.27,.24-2.47,.72-3.59,.48-1.12,1.13-2.09,1.94-2.93,.81-.83,1.78-1.49,2.89-1.97s2.31-.72,3.59-.72h13.82c1.27,0,2.42,.26,3.45,.79,1.03,.53,1.92,1.22,2.66,2.07,.75,.86,1.33,1.85,1.74,2.99,.42,1.14,.63,2.3,.63,3.49v35.66c0,1.23-.21,2.4-.63,3.52-.42,1.12-1.01,2.11-1.78,2.96-.77,.86-1.68,1.55-2.73,2.07-1.05,.53-2.19,.79-3.42,.79l-13.75,4c-1.14,0-2.26-.19-3.36-.56-1.1-.37-2.07-.91-2.93-1.61-.86-.7-1.55-1.55-2.07-2.53s-.79-2.09-.79-3.32Zm21.18-9.39v-28.68c0-.79-.19-1.46-.56-2.01-.37-.55-.85-.99-1.41-1.32-.57-.33-1.21-.57-1.91-.72-.7-.15-1.4-.23-2.11-.23-.53,0-1.06,.11-1.61,.33-.55,.22-1.05,.52-1.51,.89-.46,.37-.83,.82-1.12,1.35-.29,.53-.43,1.12-.43,1.78v29.08c0,.75,.16,1.41,.49,2.01s.76,1.09,1.28,1.48,1.13,.69,1.81,.89,1.37,.27,2.07,.23c1.4-.09,2.59-.6,3.55-1.55,.96-.94,1.45-2.12,1.45-3.52Z" class="cls-2"/><path d="M112.36,225.1h8.62v33.9c0,.58,.12,1.12,.35,1.63,.23,.51,.56,.95,.98,1.33,.42,.38,.89,.68,1.41,.89,.52,.22,1.08,.33,1.65,.33,1.12,0,2.13-.34,3.04-1.03,.9-.69,1.36-1.61,1.36-2.77v-34.27h8.68v36.66c0,1.05-.17,2.06-.52,3.04-.34,.98-.82,1.84-1.44,2.6-.62,.76-1.37,1.37-2.25,1.82-.89,.45-1.87,.68-2.96,.68l-11.77,2c-1.08,0-2.07-.23-2.96-.68-.89-.45-1.64-1.06-2.25-1.82-.62-.76-1.09-1.63-1.44-2.6-.34-.98-.52-1.99-.52-3.04v-38.66Z" class="cls-2"/><path d="M144.48,225.05h17.78c.82,.03,1.59,.24,2.31,.61,.72,.38,1.35,.85,1.89,1.42,.54,.57,.97,1.23,1.28,1.97,.31,.74,.47,1.5,.47,2.28v12.04c0,.72-.18,1.39-.54,2.01-.36,.62-.83,1.18-1.4,1.67-.57,.49-1.19,.92-1.84,1.28-.66,.36-1.28,.61-1.87,.74l5.94,16.61h-8.4l-5.4-16.31h-2.41v16.31h-7.81v-40.63Zm7.86,6.78v10.22h6.58c.49,0,.84-.2,1.06-.59,.21-.39,.32-.82,.32-1.28v-6.93c0-.46-.17-.81-.52-1.06-.34-.25-.73-.37-1.15-.37h-6.29Z" class="cls-2"/><path d="M173.48,225.05h9.91l7.01,25.36v-25.31h7.53v39.37h-9.91l-7.39-24.64v24.64h-7.15v-39.42Z" class="cls-2"/><path d="M220.3,225.1l10.52,39.87h-8.3l-1.59-6.28h-9.56l-1.35,6.28h-8.45l10.28-39.87h8.45Zm-7.87,27.13h7.29l-3.81-16.75-3.48,16.75Z" class="cls-2"/><path d="M235.49,225.1h10.29l5.05,21.57,4.31-21.57h11.23v40.49h-7.75v-25.05l-5.29,25.05h-5.05l-5.15-25.05v25.05h-7.7l.05-40.49Z" class="cls-2"/><path d="M273.4,225.1h22.45v8.13h-13.83v8.95h12.36v8.13h-11.99v11.44h13.45v10.55l-22.45-4.72v-42.49Z" class="cls-2"/><path d="M302.97,225.11h13.84l9.78,35.41v-35.34h10.52v63.6l-13.84-8.63-10.32-34.41v32l-9.98-3.79v-48.84Z" class="cls-2"/><path d="M343.03,224.07h48.36v14.85h-16.57v63.88l-15.23-5.04v-58.85h-16.57v-14.85Z" class="cls-2"/></g><path d="M145.34,334.01s-8.91-3.56-11.54,12.72c-2.63,16.28,18.97,4.77,11.54-12.72Z" class="cls-1"/><path d="M194.79,358.41l84.77,.25s-2.04-21.83-23.74-29.11" class="cls-11"/><polygon points="118.71 215.85 95.68 215.2 90.18 208.68 117.89 208.63 118.71 215.85" class="cls-14"/><polygon points="301.5 215.38 278.7 215.76 279.69 208.04 308.37 208.44 301.5 215.38" class="cls-14"/><g><circle cx="210.04" cy="9.75" r="9.74" class="cls-14"/><g><path d="M283.02,6.33c-1.63-2.66-5.26-3.82-8.13-2.62-3.25,1.37-5.01,4.62-4.1,7.92,.32,1.18,1.04,2.25,1.62,3.44-5.53,5.49-11.82,10.22-18.82,14.08,.29,.15,.56,.21,.81,.26,2.1,.41,4.24,.64,6.27,1.27,5.95,1.88,8.69,7.55,6.6,13.41-1.26,3.57-3.66,6.23-6.86,8.14-4.4,2.63-9.1,3.53-14.06,1.84-5.53-1.89-8.19-7.25-6.47-12.83,.78-2.53,2.25-4.61,4.1-6.48,1.11-1.12,2.06-2.4,3.13-3.66-.36-.24-.56-.38-.78-.5-9.03-5.32-18.06-10.63-27.08-15.94-.8-.46-1.56-.99-2.33-1.49-.04-.03-.07-.05-.1-.07-.3,.55-.6,1.09-.93,1.7-.03,.04-.05,.08-.07,.12,9.43,5.55,18.87,11.1,28.33,16.68-.21,.33-.33,.58-.5,.81-.17,.22-.39,.4-.6,.59-2.68,2.41-4.56,5.31-5.34,8.86-.76,3.38-.2,6.57,1.77,9.4,2.11,3.02,5.13,4.72,8.73,5.33,4.59,.78,8.86-.13,12.86-2.46,4.07-2.37,7.01-5.67,8.35-10.23,1.11-3.85,.62-7.49-1.84-10.76-1.93-2.57-4.57-4-7.62-4.76-.25-.07-.5-.14-.87-.24,6.21-3.83,11.57-8.4,16.59-13.5-.29-.18-.45-.29-.61-.39-1.85-1.09-2.75-2.91-2.44-4.96,.29-1.93,1.73-3.46,3.75-3.96,2.14-.53,4.83,.94,5.51,3.01,.82,2.49-.28,5.1-2.51,6.06-.19,.08-.39,.46-.35,.67,.13,.77,.34,1.53,.53,2.29,1.97,8.1,3.96,16.19,5.91,24.3,.05,.21-.09,.59-.27,.74-1.7,1.41-3.37,2.86-5.15,4.16-3.47,2.52-7.01,4.97-10.52,7.42-1.72,1.2-3.41,2.44-5.17,3.55-3.12,1.94-6.23,3.86-9.42,5.67-3.41,1.94-6.86,3.82-10.36,5.58-3.69,1.85-7.44,3.6-11.2,5.27-3.86,1.72-7.76,3.4-11.7,4.93-4.25,1.66-8.52,3.32-12.88,4.65-5.93,1.8-11.96,3.22-17.91,4.94-1.7,.5-2.66,.17-3.74-1.27-5.05-6.65-10.24-13.21-15.36-19.8-.34-.43-.59-.65-1.24-.4-2.01,.8-3.89,.45-5.41-1.13-1.44-1.5-1.71-3.3-.93-5.24,.77-1.93,2.63-3.05,4.84-2.93,1.94,.11,3.77,1.53,4.21,3.43,.23,.92,.19,1.9,.27,2.91,6.96-.8,13.87-2.07,20.16-4.43-.25,1.01-.55,2.18-.85,3.34-.66,2.58-.64,5.14,.37,7.61,1.79,4.39,5.24,6.77,9.77,7.64,4.97,.95,9.6-.17,13.83-2.85,1.32-.84,2.64-1.77,3.66-2.93,1.84-2.09,3.29-4.45,4.03-7.21,1.33-4.99-.56-10.26-4.82-13.07-3.58-2.38-7.54-2.86-11.71-2.23-.59,.09-1.2,.09-1.83,.13-.02-.22-.04-.35-.03-.45,1.22-8.73,2.45-17.46,3.62-26.2,.24-1.77,.84-3.54,.36-5.38-.08-.27-.15-.47-.28-.6-.12-.12-.29-.18-.55-.21-2.21-.29-3.92-1.42-5.22-3.22-.24-.33-.47-.66-.71-.99-.02,.03-.04,.05-.06,.08-1.27,1.8-1.24,1.9,.46,3.52,.06,.06,.12,.12,.18,.17,1.27,1.17,2.77,1.89,4.48,2.29-1.52,10.93-3.03,21.83-4.57,32.92,1.81-.09,3.48-.11,5.14-.25,2.19-.19,4.31-.11,6.42,.53,6.06,1.82,8.98,7.54,6.91,13.5-2.81,8.07-13.02,12.91-21.06,9.99-5.34-1.94-8.04-7.05-6.42-12.49,.53-1.78,1.55-3.41,2.37-5.1,.36-.76,.8-1.49,1.21-2.24-7.45,3-15.06,5-22.66,5.91-.57-1.18-.94-2.3-1.59-3.21-2.03-2.86-5.67-3.64-8.77-1.98-2.83,1.5-4.23,5.03-3.19,8,1.19,3.39,4.35,5.25,7.83,4.57,.45-.08,.69,0,.97,.38,4.56,5.87,9.09,11.77,13.74,17.57,2.19,2.74,4.05,5.63,5.49,8.83,1.44,3.23,3.07,6.38,4.59,9.58,.28,.6,.66,.99,1.28,1.07,.89,.11,1.79,.23,2.67,.17,3.61-.23,7.08-1.19,10.51-2.24,7.72-2.37,15.2-5.4,22.54-8.72,15.8-7.15,31.46-14.58,46.36-23.51,4.31-2.59,8.56-5.3,12.36-8.6,1.47-1.29,2.75-2.79,4.03-4.27,.6-.7,.65-1.53,.17-2.48-2.22-4.45-4.36-8.94-6.52-13.42-.27-.55-.48-1.15-.62-1.73-2.08-8.48-4.14-16.96-6.21-25.44-.13-.55-.06-.88,.41-1.27,2.61-2.21,3.11-5.85,1.27-8.84Zm9.45,52.6c-1.82,2.2-4,4.02-6.32,5.62-3.32,2.28-6.68,4.49-10.11,6.59-2.94,1.81-5.95,3.47-8.97,5.12-3.13,1.7-6.28,3.37-9.47,4.96-6.66,3.32-13.34,6.61-20.05,9.84-3.16,1.52-6.36,2.94-9.6,4.28-4.79,1.96-9.6,3.91-14.47,5.68-4.47,1.63-9.01,3.08-13.76,3.7q-3.02,.39-4.36-2.35c-1.74-3.59-3.47-7.18-5.22-10.77l-.4-.84c35.67-8.4,67.76-23.95,96.49-46.6,.17,.31,.3,.52,.4,.74,2.02,4.15,4.01,8.3,6.04,12.44,.32,.63,.22,1.07-.2,1.59Z" class="cls-14"/><path d="M231.76,34.07c-.5,4.57-.95,9.16-1.42,13.74-.14,1.36-.29,2.71-.46,4.2-1.44-.9-2.78-1.75-4.13-2.6-3.69-2.36-7.38-4.73-11.08-7.05-.56-.36-.75-.72-.66-1.36,.11-.8,.1-1.61,.14-2.41h-.02c.02-.1,.05-.19,.07-.27,.43-3.8,.86-7.58,1.31-11.51,.94,.87,1.79,1.62,2.7,2.46-.5,.53-.95,1-1.35,1.43,.66,.06,1.34,.12,2.07,.19-.14,1.37-.27,2.59-.39,3.81-.11,1.14-.22,2.28-.36,3.43-.02,.17-.21,.33-.32,.5-.09-.11-.18-.23-.27-.33,.12-.67,.28-1.32,.36-1.99,.2-1.68,.13-1.75-1.56-2.09-.03,0-.05,.01-.08,.03-.17,1.27-.34,2.55-.52,3.83l.56,1.16c-.15,.19-.4,.46-.73,.85,.52,0,.88-.02,1.43-.03-.48,.36-.78,.58-1.1,.81,.56-.07,1.08-.28,1.52-.17,.4,.09,.71,.53,1.02,.78-.07-.26-.15-.61-.29-1.12,1.52,.9,2.9,1.72,4.27,2.53,.03-.04,.06-.08,.09-.11-.57-.47-1.15-.92-1.73-1.39,.52-1.56,.79-3.14,.34-4.78-.05-1.07-.11-2.13-.18-3.26,.16,.15,.29,.27,.35,.33-.18-.74-.37-1.51-.59-2.36,1.12,.28,1.08,1.13,1.34,1.82h0c.04,.16,.07,.3,.11,.46,.3,.96,.59,1.91,.89,2.87,.36,1.2,.73,2.39,1.07,3.59,.31,1.13,.29,1.13,1.21,.56,.16-.1,.33-.21,.53-.26,.57-.17,.62-.57,.43-1.04-.25-.59-.51-1.17-.78-1.75-.49-1.03-.97-2.05-1.45-3.07-.15-.33-.3-.64-.44-.96,.07-.08,.17-.25,.21-.23,.59,.23,1.17,.47,1.76,.7,.03-.06,.06-.11,.09-.16-.43-.28-.86-.55-1.3-.81-.12-.07-.26-.14-.39-.2h0c-.15-.16-.31-.32-.45-.48,.7,.03,.62-.64,.77-1.02,.1-.24-.1-.78-.33-.95-.78-.61-1.65-1.12-2.48-1.67,.04-.08,.07-.15,.12-.23-.27-.03-.53-.04-.79-.06-.33-.21-.67-.42-1.01-.62-.09-.2-.17-.4-.26-.6,0-.53-.01-1.06,0-1.72,1.2,.76,2.35,1.48,3.49,2.2,2.65,1.69,5.3,3.39,7.96,5.06,.53,.33,.74,.68,.66,1.35Z" class="cls-13"/><path d="M223.63,32.33v-.03c-.11-.07-.21-.15-.3-.22h0c-.2-.15-.4-.3-.59-.46-.08,.03-.15,.05-.24,.08,.01-.08,.02-.17,.03-.25l-.24-.08c-1.59-.62-1.78-1.39-.68-2.68,.04-.08,.07-.15,.12-.23-.27-.03-.53-.04-.79-.06-.96,.17-1.07,.1-1.01-.62-.09-.2-.17-.4-.26-.6-.22,.17-.44,.36-.72,.59-.2-.32-.43-.7-.66-1.09-.17-.19-.34-.37-.55-.6,.14,.7,.26,1.36,.42,2.12-.83-.55-1.66-1.09-2.47-1.63-.08-.05-.15-.19-.13-.29,.14-1.07,.29-2.13,.45-3.2-.42-1.1-.8-2.21-1.26-3.29-.16-.37-.44-.71-.73-1.01-.61-.64-1.14-.54-1.44,.3-.15,.42-.21,.87-.25,1.31-.43,4.72-.87,9.43-1.24,14.15-.26,3.21-.4,6.44-.56,9.65-.03,.55,.08,1.1,.12,1.64,.08,.01,.17,.02,.25,.03,.19-.27,.42-.51,.56-.82,.42-.88,.82-1.77,1.19-2.69,.53-1.25,1.02-2.53,1.53-3.79h-.02c.02-.1,.05-.19,.07-.27,.43-3.8,.86-7.58,1.31-11.51,.94,.87,1.79,1.62,2.7,2.46-.5,.53-.95,1-1.35,1.43,.66,.06,1.34,.12,2.07,.19-.14,1.37-.27,2.59-.39,3.81-.11,1.14-.22,2.28-.36,3.43-.02,.17-.21,.33-.32,.5-.09-.11-.18-.23-.27-.33-.42-.37-.86-.74-1.28-1.1,.07,.29,.16,.65,.25,1.01-.29-.06-.53-.1-.76-.14l.56,1.16c-.15,.19-.4,.46-.73,.85,.52,0,.88-.02,1.43-.03-.48,.36-.78,.58-1.1,.81,.56-.07,1.08-.28,1.52-.17,.4,.09,.71,.53,1.02,.78-.07-.26-.15-.61-.29-1.12,1.52,.9,2.9,1.72,4.27,2.53,.03-.04,.06-.08,.09-.11-.57-.47-1.15-.92-1.73-1.39-.58-.37-1.15-.72-1.73-1.09-.64-.36-.92-.75-.48-1.54,.2-.34-.02-.91-.01-1.38,0-.29,.08-.58,.32-.89,.04,.49,.09,.98,.13,1.47,.45-.32,.89-.65,1.34-.95,.23-.16,.51-.27,.76-.4-.05-1.07-.11-2.13-.18-3.26,.16,.15,.29,.27,.35,.33-.18-.74-.37-1.51-.59-2.36,1.12,.28,1.08,1.13,1.34,1.82h0c.19-.03,.39-.08,.59-.13s.4-.09,.59-.13c.25-.04,.49-.04,.75-.06h0c-.15-.16-.31-.32-.45-.48Zm-4.73,3.91s-.07-.02-.08-.04,0-.05,.02-.08c.03,.02,.06,.03,.08,.04,0,.03-.02,.05-.03,.08Zm0-.4l-.05-.02,.04-.04,.02,.06Z" class="cls-10"/><path d="M169.03,60.66c.47,1.29,.49,2.86-.16,4.4-.39,.91-1.08,1.08-1.93,.56-1.91-1.17-2.17-4.3-.49-5.79,.98-.86,1.88-.66,2.58,.84Z" class="cls-10"/><path d="M219.23,25.19c-.02,.58-.03,1.22-.04,1.93-.34-.16-.63-.29-.91-.44-.17-.19-.34-.37-.55-.6,.14,.7,.26,1.36,.42,2.12-.83-.55-1.66-1.09-2.47-1.63-.08-.05-.15-.19-.13-.29,.14-1.07,.29-2.13,.45-3.2,1.07,.7,2.16,1.4,3.23,2.1Z" class="cls-13"/><path d="M189.74,90.76c35.67-8.41,67.76-23.95,96.49-46.6,.17,.3,.3,.52,.41,.74,2.01,4.15,4,8.3,6.04,12.44,.32,.64,.22,1.07-.2,1.59-1.82,2.2-4,4.02-6.32,5.62-3.31,2.28-6.68,4.49-10.11,6.59-2.93,1.8-5.95,3.46-8.97,5.11-3.13,1.71-6.27,3.38-9.46,4.96-6.66,3.32-13.34,6.61-20.05,9.83-3.16,1.52-6.37,2.95-9.61,4.28-4.79,1.97-9.6,3.91-14.47,5.68-4.47,1.63-9.01,3.08-13.77,3.7q-3.02,.39-4.35-2.35c-1.74-3.59-3.48-7.18-5.22-10.77-.13-.27-.27-.55-.4-.83Zm28.79-.76c.28-.13,.6-.22,.82-.41,.34-.3,.61-.67,.91-1.02-.4-.2-.79-.41-1.2-.58-.17-.07-.39-.07-.58-.03-2.02,.35-4.06,.64-6.06,1.1-.87,.2-1.74,.64-2.49,1.15-.78,.53-.59,1.27,.33,1.49,.56,.14,1.17,.17,1.75,.13,2.29-.15,4.42-.94,6.51-1.83Z" class="cls-12"/><path d="M224.15,34.48c.48,1.03,.97,2.05,1.45,3.08,.27,.58,.54,1.17,.79,1.76,.19,.47,.15,.86-.43,1.03-.19,.05-.36,.15-.53,.26-.92,.57-.9,.57-1.22-.55-.33-1.2-.71-2.39-1.07-3.59,.18-.17,.55-.46,.52-.51-.42-.7,.14-1.05,.48-1.48Z" class="cls-12"/><path d="M219.11,37.95c.45-.32,.88-.65,1.34-.95,.24-.16,.51-.27,.77-.4,.44,1.63,.18,3.21-.34,4.77-.58-.36-1.15-.72-1.73-1.08-.01-.78-.02-1.56-.03-2.34Z" class="cls-12"/><path d="M222.52,31.45c-.08-.03-.16-.05-.24-.08-1.59-.63-1.78-1.4-.69-2.69,.83,.55,1.7,1.06,2.48,1.67,.23,.18,.43,.72,.33,.96-.15,.37-.07,1.04-.78,1.01,0,0,0-.03,0-.03-.1-.07-.2-.15-.29-.22,0,0,0,0,0,0-.2-.15-.4-.31-.6-.46,0,0,0,0,0,0-.07-.06-.14-.11-.22-.17Z" class="cls-12"/><path d="M217.6,38.28c-.43-.37-.86-.74-1.28-1.1,.07,.3,.16,.65,.25,1.02-.29-.05-.52-.1-.76-.14,.17-1.28,.34-2.55,.51-3.82,.03-.01,.05-.04,.08-.03,1.69,.34,1.76,.41,1.56,2.09-.08,.67-.24,1.33-.36,1.99Z" class="cls-12"/><path d="M224.15,34.48c-.34,.43-.9,.78-.48,1.48,.03,.05-.34,.33-.52,.51-.3-.96-.59-1.92-.89-2.88,.48-.02,.97-.04,1.45-.06,.15,.32,.29,.64,.44,.96Z" class="cls-10"/><path d="M223.7,33.52c-.48,.02-.97,.04-1.45,.06-.04-.15-.07-.3-.11-.45,.39-.09,.79-.19,1.18-.26,.25-.05,.5-.05,.76-.07,0,0,0,0,0,0,.13,.07,.26,.13,.39,.2,.44,.27,.87,.54,1.31,.81-.03,.06-.06,.11-.09,.17-.59-.24-1.17-.48-1.76-.7-.03-.01-.14,.15-.21,.24Z" class="cls-12"/><path d="M220.93,28.4c-.96,.17-1.08,.1-1.01-.63,.34,.21,.67,.42,1.01,.63Z" class="cls-12"/><path d="M224.46,33.01c-.13-.07-.26-.13-.39-.2,.13,.07,.26,.13,.39,.2Z" class="cls-10"/><path d="M214.14,38.57c.02-.09,.04-.17,.07-.26-.02,.09-.04,.17-.07,.26Z" class="cls-12"/><path d="M219.11,37.95c.01,.78,.02,1.56,.03,2.34-.64-.36-.92-.76-.48-1.54,.2-.35-.02-.92-.01-1.39,0-.29,.08-.59,.32-.89l.14,1.47Z" class="cls-13"/><path d="M222.72,31.61c.2,.15,.4,.31,.6,.46-.2-.15-.4-.31-.6-.46Z" class="cls-13"/><path d="M222.52,31.45c.07,.06,.14,.11,.22,.17-.08,.03-.16,.05-.24,.08,0-.08,.01-.16,.02-.25Z" class="cls-13"/><path d="M223.32,32.07c.1,.08,.2,.15,.29,.22-.1-.08-.2-.15-.29-.22Z" class="cls-13"/><polygon points="218.85 35.82 218.88 35.77 218.9 35.83 218.85 35.82" class="cls-13"/><path d="M218.93,36.16s-.02,.05-.03,.08c-.02-.01-.06-.02-.07-.04,0-.02,.01-.05,.02-.08,.02,.01,.05,.02,.08,.04Z" class="cls-13"/><path d="M218.53,90c-2.09,.89-4.22,1.67-6.51,1.83-.58,.04-1.18,0-1.75-.13-.92-.22-1.11-.97-.33-1.49,.75-.51,1.61-.95,2.49-1.15,2-.46,4.03-.75,6.06-1.1,.19-.03,.41-.03,.58,.03,.41,.17,.8,.38,1.2,.58-.3,.34-.57,.72-.91,1.02-.22,.2-.54,.28-.82,.41Z" class="cls-10"/></g><path d="M276.35,5.31c-2.02,.5-3.46,2.03-3.75,3.96-.31,2.05,.59,3.87,2.44,4.96,.16,.1,.32,.21,.61,.39-5.02,5.1-10.37,9.67-16.59,13.5,.37,.11,.62,.18,.87,.24,3.05,.76,5.69,2.19,7.62,4.76,2.46,3.27,2.96,6.91,1.84,10.76-1.34,4.56-4.28,7.86-8.35,10.23-4.01,2.33-8.28,3.24-12.86,2.46-3.61-.61-6.62-2.31-8.73-5.33-1.97-2.83-2.52-6.02-1.77-9.4,.78-3.55,2.67-6.45,5.34-8.86,.21-.19,.43-.37,.6-.59,.17-.23,.29-.47,.5-.81-9.46-5.58-18.9-11.13-28.33-16.68,.02-.04,.05-.09,.07-.12,.33-.6,.63-1.15,.93-1.7,.04,.03,.07,.05,.1,.07,.1-.2,.18-.41,.25-.62-.04-.02-.08-.05-.12-.08,1.53-3.36-.41-7.9-4.02-9.3-.89-.35-1.85-.53-2.79-.77-.07,0-.14-.01-.2,0-.38-.01-.78,.02-1.16,.08-.71,.11-1.41,.33-2.09,.66-.05,.02-.09,.04-.13,.07-2.02,1.02-3.39,2.83-3.91,4.88,.02,0,.04,0,.06,0-.02,.97-.03,1.8-.04,2.64,.02,.06,.03,.12,.04,.18,0,.12,.01,.24,.03,.35-.05,.1-.1,.19-.15,.29,.11,.55,.29,1.09,.54,1.62,.02-.03,.04-.05,.06-.08,.24,.33,.47,.66,.71,.99,1.3,1.79,3.02,2.93,5.22,3.22,.26,.03,.42,.09,.55,.21,.13,.13,.2,.32,.28,.6,.48,1.84-.12,3.61-.36,5.38-1.17,8.74-2.4,17.47-3.62,26.2-.01,.11,.01,.23,.03,.45,.63-.04,1.24-.04,1.83-.13,4.17-.63,8.13-.14,11.71,2.23,4.26,2.82,6.16,8.09,4.82,13.07-.74,2.77-2.19,5.12-4.03,7.21-1.02,1.16-2.34,2.09-3.66,2.93-4.23,2.68-8.86,3.8-13.83,2.85-4.53-.86-7.98-3.25-9.77-7.64-1.01-2.46-1.03-5.03-.37-7.61,.3-1.17,.59-2.33,.85-3.34-6.29,2.36-13.21,3.63-20.16,4.43-.09-1.01-.05-1.99-.27-2.91-.44-1.9-2.27-3.32-4.21-3.43-2.2-.12-4.07,1-4.84,2.93-.77,1.94-.51,3.73,.93,5.24,1.52,1.58,3.4,1.92,5.41,1.13,.65-.25,.89-.03,1.24,.4,5.12,6.59,10.31,13.14,15.36,19.8,1.08,1.43,2.04,1.77,3.74,1.27,5.94-1.72,11.98-3.14,17.91-4.94,4.36-1.33,8.63-3,12.88-4.65,3.95-1.53,7.84-3.2,11.7-4.93,3.77-1.68,7.51-3.42,11.2-5.27,3.5-1.76,6.96-3.64,10.36-5.58,3.19-1.81,6.31-3.73,9.42-5.67,1.76-1.11,3.45-2.35,5.17-3.55,3.51-2.45,7.05-4.9,10.52-7.42,1.78-1.3,3.46-2.75,5.15-4.16,.18-.15,.32-.53,.27-.74-1.96-8.11-3.94-16.2-5.91-24.3-.19-.76-.4-1.52-.53-2.29-.03-.21,.16-.59,.35-.67,2.24-.96,3.33-3.57,2.51-6.06-.68-2.07-3.37-3.54-5.51-3.01Zm-107.48,59.74c-.39,.91-1.08,1.08-1.93,.56-1.91-1.17-2.17-4.3-.49-5.79,.98-.86,1.88-.66,2.58,.84,.47,1.29,.49,2.86-.16,4.4Zm61.47-17.25c-.14,1.36-.29,2.71-.46,4.2-1.44-.9-2.78-1.75-4.13-2.6-3.69-2.36-7.38-4.73-11.08-7.05-.56-.36-.75-.72-.66-1.36,.11-.8,.1-1.61,.14-2.41-.51,1.26-1.01,2.53-1.53,3.79-.37,.91-.77,1.81-1.19,2.69-.14,.3-.37,.55-.56,.82-.08-.01-.17-.02-.25-.03-.04-.55-.15-1.09-.12-1.64,.17-3.21,.31-6.44,.56-9.65,.37-4.72,.81-9.44,1.24-14.15,.04-.44,.1-.89,.25-1.31,.31-.84,.84-.94,1.44-.3,.29,.3,.58,.64,.73,1.01,.46,1.08,.84,2.19,1.26,3.29,1.07,.7,2.16,1.4,3.23,2.1-.02,.58-.03,1.22-.04,1.93-.34-.16-.63-.29-.91-.44,.23,.39,.46,.77,.66,1.09,.28-.24,.51-.42,.72-.59,0-.53-.01-1.06,0-1.72,1.2,.76,2.35,1.48,3.49,2.2,2.65,1.69,5.3,3.39,7.96,5.06,.53,.33,.74,.68,.66,1.35-.5,4.57-.95,9.16-1.42,13.74Z" class="cls-12"/><path d="M209.76,17.49c-2.7-.11-5.25-1.66-6.5-4.25l-.04-.08s.04-.05,.06-.08c.24,.33,.47,.66,.71,.99,1.3,1.79,3.02,2.93,5.22,3.22,.26,.03,.42,.09,.55,.21Z" class="cls-12"/><path d="M216.81,13.09s.07,.05,.1,.07c-.27,.57-.62,1.13-1.04,1.62,.33-.6,.63-1.15,.93-1.7Z" class="cls-12"/></g></g></g></svg>